<svg width="208" height="45" viewBox="0 0 208 45" fill="none" xmlns="http://www.w3.org/2000/svg">
<path d="M50.904 36L42.444 25.92H46.26L54.756 35.964V36H50.904ZM29.016 36V10.116H50.616C51.408 10.116 52.128 10.32 52.776 10.728C53.448 11.112 53.976 11.628 54.36 12.276C54.744 12.924 54.936 13.644 54.936 14.436V22.032C54.936 22.824 54.744 23.544 54.36 24.192C53.976 24.84 53.448 25.368 52.776 25.776C52.128 26.16 51.408 26.352 50.616 26.352H31.932V36H29.016ZM33.336 23.4H50.616C51 23.4 51.324 23.268 51.588 23.004C51.876 22.74 52.02 22.416 52.02 22.032V14.436C52.02 14.052 51.876 13.728 51.588 13.464C51.324 13.176 51 13.032 50.616 13.032H33.336C32.952 13.032 32.616 13.176 32.328 13.464C32.064 13.728 31.932 14.052 31.932 14.436V22.032C31.932 22.416 32.064 22.74 32.328 23.004C32.616 23.268 32.952 23.4 33.336 23.4ZM62.899 36C62.107 36 61.375 35.808 60.703 35.424C60.055 35.016 59.527 34.488 59.119 33.84C58.735 33.168 58.543 32.436 58.543 31.644V19.476C58.543 18.684 58.735 17.964 59.119 17.316C59.527 16.644 60.055 16.116 60.703 15.732C61.375 15.324 62.107 15.12 62.899 15.12H75.427C76.243 15.12 76.975 15.324 77.623 15.732C78.295 16.116 78.823 16.644 79.207 17.316C79.615 17.964 79.819 18.684 79.819 19.476V31.644C79.819 32.436 79.615 33.168 79.207 33.84C78.823 34.488 78.295 35.016 77.623 35.424C76.975 35.808 76.243 36 75.427 36H62.899ZM62.899 33.048H75.427C75.811 33.048 76.135 32.916 76.399 32.652C76.687 32.364 76.831 32.028 76.831 31.644V19.476C76.831 19.092 76.687 18.768 76.399 18.504C76.135 18.216 75.811 18.072 75.427 18.072H62.899C62.515 18.072 62.179 18.216 61.891 18.504C61.627 18.768 61.495 19.092 61.495 19.476V31.644C61.495 32.028 61.627 32.364 61.891 32.652C62.179 32.916 62.515 33.048 62.899 33.048ZM86.9608 44.244V41.256H99.9928C100.377 41.256 100.701 41.112 100.965 40.824C101.253 40.56 101.397 40.236 101.397 39.852V36H87.4648C86.6728 36 85.9408 35.808 85.2688 35.424C84.6208 35.016 84.0928 34.488 83.6848 33.84C83.3008 33.168 83.1088 32.436 83.1088 31.644V19.476C83.1088 18.684 83.3008 17.964 83.6848 17.316C84.0928 16.644 84.6208 16.116 85.2688 15.732C85.9408 15.324 86.6728 15.12 87.4648 15.12H99.9928C100.809 15.12 101.541 15.324 102.189 15.732C102.861 16.116 103.389 16.644 103.773 17.316C104.157 17.964 104.349 18.684 104.349 19.476V39.852C104.349 40.668 104.157 41.4 103.773 42.048C103.389 42.72 102.861 43.248 102.189 43.632C101.541 44.04 100.809 44.244 99.9928 44.244H86.9608ZM87.4648 33.048H99.9928C100.377 33.048 100.701 32.916 100.965 32.652C101.253 32.364 101.397 32.028 101.397 31.644V19.476C101.397 19.092 101.253 18.768 100.965 18.504C100.701 18.216 100.377 18.072 99.9928 18.072H87.4648C87.0808 18.072 86.7448 18.216 86.4568 18.504C86.1928 18.768 86.0608 19.092 86.0608 19.476V31.644C86.0608 32.028 86.1928 32.364 86.4568 32.652C86.7448 32.916 87.0808 33.048 87.4648 33.048ZM111.872 36C111.08 36 110.348 35.808 109.676 35.424C109.028 35.016 108.5 34.488 108.092 33.84C107.708 33.168 107.516 32.436 107.516 31.644V19.476C107.516 18.684 107.708 17.964 108.092 17.316C108.5 16.644 109.028 16.116 109.676 15.732C110.348 15.324 111.08 15.12 111.872 15.12H124.4C125.216 15.12 125.948 15.324 126.596 15.732C127.268 16.116 127.796 16.644 128.18 17.316C128.588 17.964 128.792 18.684 128.792 19.476V27.036H110.468V31.644C110.468 32.028 110.6 32.364 110.864 32.652C111.152 32.916 111.488 33.048 111.872 33.048H128.792V36H111.872ZM110.468 24.084H125.804V19.476C125.804 19.092 125.66 18.768 125.372 18.504C125.108 18.216 124.784 18.072 124.4 18.072H111.872C111.488 18.072 111.152 18.216 110.864 18.504C110.6 18.768 110.468 19.092 110.468 19.476V24.084ZM136.833 36C136.041 36 135.309 35.808 134.637 35.424C133.989 35.016 133.461 34.488 133.053 33.84C132.669 33.168 132.477 32.436 132.477 31.644V24.084H150.765V19.476C150.765 19.092 150.621 18.768 150.333 18.504C150.069 18.216 149.745 18.072 149.361 18.072H132.477V15.12H149.361C150.177 15.12 150.909 15.324 151.557 15.732C152.229 16.116 152.757 16.644 153.141 17.316C153.549 17.964 153.753 18.684 153.753 19.476V36H136.833ZM136.833 33.048H150.765V27.036H135.429V31.644C135.429 32.028 135.561 32.364 135.825 32.652C136.113 32.916 136.449 33.048 136.833 33.048ZM157.018 36V15.12H173.938C174.73 15.12 175.45 15.324 176.098 15.732C176.77 16.116 177.298 16.644 177.682 17.316C178.09 17.964 178.294 18.684 178.294 19.476V36H175.342V19.476C175.342 19.092 175.198 18.768 174.91 18.504C174.646 18.216 174.322 18.072 173.938 18.072H161.41C161.026 18.072 160.69 18.216 160.402 18.504C160.114 18.768 159.97 19.092 159.97 19.476V36H157.018Z" fill="#FEFEFE"/>
<path d="M22 11L2 23.1212L22 36" stroke="#1B6DE0" stroke-width="2"/>
<path d="M186 10L206 22.1212L186 35" stroke="#1B6DE0" stroke-width="2"/>
</svg>
